<svg xmlns="http://www.w3.org/2000/svg" width="218px" height="40px" viewBox="0 0 218 40">
<path fill="#0080C9" d="M80.8,0H54.9c-1,0-2,0.4-2.8,1.2l-0.4,0.4c-1.5,1.5-4,1.5-5.6,0l-0.4-0.4C45.1,0.4,44.1,0,43,0H17.1
C7.7,0,0,7.7,0,17.1v5.7C0,32.3,7.7,40,17.1,40h26.3c1,0,2-0.4,2.8-1.2c1.5-1.5,4-1.5,5.6,0c0.8,0.8,1.7,1.2,2.8,1.2h26.2
c9.4,0,17.1-7.7,17.1-17.1v-5.7C97.8,7.7,90.2,0,80.8,0"/>
<path fill="#FFFFFF" d="M78.9,31.2H72c-2.1,0-3.8-1.7-3.8-3.8V12.2c0-2.1,1.8-3.8,3.8-3.8h6.9c5.6,0,10.1,4.5,10.1,10.1V21
C89,26.6,84.5,31.2,78.9,31.2 M73,27.3h5.9c3.5,0,6.2-2.8,6.2-6.2v-2.6c0-3.5-2.8-6.3-6.2-6.3H73c-0.5,0-0.8,0.4-0.8,0.8v13.5
C72.2,26.9,72.5,27.3,73,27.3"/>
<path fill="#FFFFFF" d="M58.2,8.2c-2.1,0-3.9,1.4-4.5,3.5l-3.9,15c-0.2,0.5-0.6,0.6-0.8,0.6s-0.7-0.1-0.8-0.6l-3.9-15
c-0.5-2-2.4-3.5-4.5-3.5c-2.6,0-4.7,2.1-4.7,4.7v5.4V31h3.8V18.3v-5.4c0-0.4,0.3-0.8,0.8-0.8c0.4,0,0.7,0.3,0.8,0.6l3.9,15
c0.6,2.1,2.3,3.5,4.5,3.5c2.2,0,3.9-1.4,4.5-3.5l3.9-15c0.1-0.3,0.4-0.6,0.8-0.6c0.4,0,0.8,0.3,0.8,0.8V31h3.8V12.9
C62.8,10.3,60.8,8.2,58.2,8.2"/>
<path fill="#4DD6B5" d="M27,24.2c-0.9,1.9-3.1,3.1-5.4,3.1h-1.9c-3.4,0-6.2-2.7-6.2-6.2v-2.8c0-3.4,2.8-6.2,6.2-6.2h1.9
c2.3,0,4.6,1.1,5.4,3.1l3.6-1.4c-1.4-3.5-5.1-5.5-9-5.5h-2c-5.5,0-10,4.5-10,10v2.8c0,5.5,4.5,10,10,10h2c3.9,0,7.8-2.2,9-5.5
L27,24.2z"/>
<polygon fill="#0080C9" points="122.6,7.8 122.6,10.9 121,10.9 121,9.2 114.7,9.2 114.7,2 116.3,2 116.3,7.8 119.8,7.8 119.8,2
121.5,2 121.5,7.8 "/>
<path fill="#0080C9" d="M130.5,6.2h-5.7c0.1,0.5,0.3,0.9,0.7,1.2c0.4,0.3,0.9,0.5,1.6,0.5c0.8,0,1.4-0.2,1.9-0.7l0.9,1
c-0.3,0.4-0.8,0.7-1.2,0.9c-0.5,0.2-1.1,0.3-1.7,0.3c-0.8,0-1.5-0.2-2.1-0.5c-0.6-0.3-1.1-0.7-1.4-1.3s-0.5-1.2-0.5-1.9
c0-0.7,0.2-1.3,0.5-1.9c0.3-0.6,0.7-1,1.3-1.3c0.6-0.3,1.2-0.5,1.9-0.5c0.7,0,1.3,0.2,1.9,0.5s1,0.8,1.3,1.3
c0.3,0.6,0.5,1.2,0.5,1.9C130.6,5.8,130.6,5.9,130.5,6.2 M125.6,3.8c-0.3,0.3-0.6,0.8-0.7,1.2h4.1c-0.1-0.5-0.3-0.9-0.7-1.2
c-0.3-0.3-0.8-0.5-1.4-0.5C126.4,3.3,125.9,3.4,125.6,3.8"/>
<polygon fill="#0080C9" points="132.1,2 133.8,2 133.8,4.9 137.4,4.9 137.4,2 139.1,2 139.1,9.2 137.4,9.2 137.4,6.4 133.8,6.4
133.8,9.2 132.1,9.2 "/>
<polygon fill="#0080C9" points="146.8,3.4 144.3,3.4 144.3,9.2 142.7,9.2 142.7,3.4 140.1,3.4 140.1,2 146.8,2 "/>
<path fill="#0080C9" d="M153.8,2.4c0.6,0.3,1,0.8,1.3,1.3c0.3,0.6,0.5,1.2,0.5,1.9s-0.2,1.4-0.5,1.9c-0.3,0.6-0.8,1-1.3,1.3
c-0.6,0.3-1.2,0.5-1.9,0.5c-1,0-1.8-0.3-2.3-1v3.5h-1.7V2.1h1.6V3c0.2-0.3,0.6-0.6,1-0.8s0.8-0.2,1.3-0.2
C152.6,1.9,153.2,2.1,153.8,2.4 M153.2,7.2c0.4-0.4,0.6-1,0.6-1.7s-0.2-1.2-0.6-1.7c-0.4-0.3-0.9-0.6-1.6-0.6
c-0.4,0-0.8,0.1-1.1,0.3c-0.3,0.2-0.6,0.4-0.7,0.8c-0.2,0.3-0.3,0.8-0.3,1.2c0,0.4,0.1,0.8,0.3,1.2c0.2,0.3,0.4,0.6,0.7,0.8
s0.7,0.2,1.1,0.2C152.3,7.9,152.8,7.7,153.2,7.2"/>
<polygon fill="#0080C9" points="121.8,24 121.8,19.2 119.3,23.2 118.6,23.2 116.2,19.2 116.2,24 114.7,24 114.7,16.8 116.4,16.8
119,21.3 121.7,16.8 123.2,16.8 123.2,24 "/>
<path fill="#0080C9" d="M126.6,23.7c-0.6-0.3-1.1-0.8-1.3-1.3c-0.3-0.6-0.5-1.2-0.5-1.9c0-0.7,0.2-1.3,0.5-1.9
c0.3-0.6,0.7-1,1.3-1.3c0.6-0.3,1.2-0.5,2-0.5c0.7,0,1.4,0.2,2,0.5c0.6,0.3,1.1,0.7,1.3,1.3c0.3,0.6,0.5,1.2,0.5,1.9
c0,0.8-0.2,1.3-0.5,1.9c-0.3,0.6-0.8,1-1.3,1.3c-0.6,0.3-1.2,0.5-2,0.5C127.8,24.2,127.2,24,126.6,23.7 M130.1,22.1
c0.4-0.4,0.6-1,0.6-1.7s-0.2-1.2-0.6-1.7c-0.4-0.4-0.9-0.6-1.5-0.6c-0.6,0-1.2,0.2-1.5,0.6c-0.4,0.4-0.6,1-0.6,1.7s0.2,1.2,0.6,1.7
c0.4,0.4,0.9,0.6,1.5,0.6C129.2,22.7,129.7,22.5,130.1,22.1"/>
<path fill="#0080C9" d="M140.4,16.8v7.2h-1.7v-5.7h-2.7l-0.1,1.4c-0.1,0.9-0.2,1.8-0.2,2.4c-0.2,0.7-0.3,1.2-0.7,1.5
c-0.3,0.3-0.8,0.6-1.2,0.6c-0.2,0-0.6-0.1-0.9-0.2l0.1-1.4c0.2,0,0.2,0,0.3,0c0.3,0,0.6-0.2,0.7-0.4c0.2-0.2,0.2-0.6,0.3-1
c0.1-0.4,0.1-0.9,0.2-1.7l0.1-2.8H140.4z"/>
<path fill="#0080C9" d="M149.2,21h-5.7c0.1,0.5,0.3,0.9,0.8,1.2c0.4,0.3,0.9,0.5,1.6,0.5c0.8,0,1.4-0.2,1.9-0.7l0.9,1
c-0.3,0.4-0.7,0.7-1.2,0.9c-0.5,0.2-1.1,0.3-1.7,0.3c-0.8,0-1.5-0.2-2.1-0.5c-0.6-0.3-1.1-0.8-1.4-1.3s-0.5-1.2-0.5-1.9
c0-0.7,0.2-1.3,0.5-1.9c0.3-0.6,0.8-1,1.3-1.3c0.6-0.3,1.2-0.5,1.9-0.5c0.7,0,1.3,0.2,1.9,0.5c0.6,0.3,1,0.8,1.3,1.3
c0.3,0.6,0.5,1.2,0.5,1.9C149.2,20.6,149.2,20.8,149.2,21 M144.2,18.6c-0.3,0.3-0.6,0.8-0.7,1.2h4.1c-0.1-0.5-0.3-0.9-0.7-1.2
c-0.3-0.3-0.8-0.5-1.4-0.5C145,18.1,144.6,18.2,144.2,18.6"/>
<polygon fill="#0080C9" points="153.8,21.2 152.4,21.2 152.4,24 150.8,24 150.8,16.8 152.4,16.8 152.4,19.8 153.8,19.8 155.9,16.8
157.8,16.8 155.1,20.3 157.9,24 155.9,24 "/>
<path fill="#0080C9" d="M166.2,16.8l-3.4,7.8c-0.3,0.7-0.7,1.3-1.2,1.7c-0.4,0.3-1,0.5-1.7,0.5c-0.3,0-0.7-0.1-1.1-0.2
c-0.3-0.1-0.7-0.2-0.8-0.5l0.7-1.2c0.2,0.2,0.3,0.2,0.6,0.3c0.2,0.1,0.4,0.2,0.7,0.2c0.3,0,0.6-0.1,0.8-0.2c0.2-0.2,0.3-0.4,0.5-0.8
l0.1-0.2l-3.2-7.2h1.8l2.2,5.3l2.2-5.3L166.2,16.8L166.2,16.8z"/>
<path fill="#0080C9" d="M173.3,16.8v7.2h-1.7v-5.7H169l-0.1,1.4c-0.1,0.9-0.2,1.8-0.3,2.4c-0.2,0.7-0.3,1.2-0.7,1.5
s-0.8,0.6-1.2,0.6c-0.3,0-0.6-0.1-0.9-0.2l0.1-1.4c0.2,0,0.2,0,0.3,0c0.3,0,0.6-0.2,0.8-0.4c0.2-0.2,0.2-0.6,0.3-1
c0.1-0.4,0.1-0.9,0.2-1.7l0.1-2.8H173.3z"/>
<path fill="#0080C9" d="M181.5,16.8v7.2H180v-2.2h-1.9l-1.5,2.2h-1.8l1.7-2.4c-0.5-0.2-0.9-0.4-1.2-0.8c-0.2-0.3-0.4-0.8-0.4-1.4
c0-0.8,0.3-1.5,0.9-1.9c0.6-0.4,1.4-0.7,2.4-0.7C178.2,16.8,181.5,16.8,181.5,16.8z M176.6,19.5c0,0.8,0.5,1.2,1.6,1.2h1.8v-2.4
h-1.8C177.2,18.2,176.6,18.7,176.6,19.5"/>
<path fill="#0080C9" d="M189.3,17.2c0.6,0.3,1,0.7,1.3,1.3c0.3,0.6,0.5,1.2,0.5,1.9c0,0.8-0.2,1.4-0.5,1.9c-0.3,0.6-0.8,1-1.3,1.3
c-0.6,0.3-1.2,0.5-1.9,0.5c-1,0-1.8-0.3-2.3-1v3.5h-1.7v-9.8h1.6v0.9c0.2-0.3,0.6-0.6,1-0.7c0.4-0.2,0.8-0.2,1.3-0.2
C188.2,16.8,188.8,16.9,189.3,17.2 M188.8,22.1c0.4-0.4,0.6-1,0.6-1.7s-0.2-1.2-0.6-1.7c-0.4-0.4-0.9-0.6-1.5-0.6
c-0.4,0-0.8,0.1-1.1,0.2c-0.3,0.2-0.6,0.4-0.8,0.7c-0.2,0.3-0.2,0.8-0.2,1.2c0,0.4,0.1,0.8,0.2,1.2c0.2,0.3,0.4,0.6,0.8,0.8
s0.7,0.2,1.1,0.2C187.9,22.7,188.4,22.5,188.8,22.1"/>
<polygon fill="#0080C9" points="192.6,16.8 194.2,16.8 194.2,19.8 197.9,19.8 197.9,16.8 199.6,16.8 199.6,24 197.9,24 197.9,21.2
194.2,21.2 194.2,24 192.6,24 "/>
<path fill="#0080C9" d="M202.9,23.7c-0.6-0.3-1.1-0.8-1.3-1.3c-0.3-0.6-0.5-1.2-0.5-1.9c0-0.7,0.2-1.3,0.5-1.9
c0.3-0.6,0.8-1,1.3-1.3c0.6-0.3,1.2-0.5,2-0.5c0.8,0,1.4,0.2,2,0.5c0.6,0.3,1.1,0.7,1.3,1.3c0.3,0.6,0.5,1.2,0.5,1.9
c0,0.8-0.2,1.3-0.5,1.9c-0.3,0.6-0.8,1-1.3,1.3c-0.6,0.3-1.2,0.5-2,0.5C204.2,24.2,203.5,24,202.9,23.7 M206.4,22.1
c0.4-0.4,0.6-1,0.6-1.7s-0.2-1.2-0.6-1.7c-0.4-0.4-0.9-0.6-1.5-0.6c-0.6,0-1.2,0.2-1.5,0.6c-0.4,0.4-0.6,1-0.6,1.7s0.2,1.2,0.6,1.7
c0.4,0.4,0.9,0.6,1.5,0.6C205.5,22.7,206,22.5,206.4,22.1"/>
<path fill="#0080C9" d="M210.2,16.8h1.7v4.8l4-4.8h1.5v7.2h-1.7v-4.8l-4,4.8h-1.6L210.2,16.8L210.2,16.8z M212,15.5
c-0.4-0.3-0.6-0.8-0.6-1.5h1.1c0,0.3,0.1,0.6,0.3,0.8c0.2,0.2,0.5,0.2,0.8,0.2s0.6-0.1,0.8-0.2c0.2-0.2,0.3-0.4,0.3-0.8h1.2
c0,0.7-0.2,1.2-0.6,1.5s-0.9,0.5-1.7,0.5C212.9,16,212.3,15.8,212,15.5"/>
<path fill="#0080C9" d="M122.3,36.8v3h-1.6v-1.6h-5.6v1.6h-1.6v-3h0.3c0.5,0,0.7-0.3,0.9-0.9c0.2-0.6,0.2-1.4,0.3-2.4l0.1-2.5h5.9
v5.8L122.3,36.8L122.3,36.8z M116.6,35.7c-0.1,0.5-0.2,0.9-0.5,1.2h3.6v-4.3h-2.8v1.2C116.8,34.4,116.7,35.1,116.6,35.7"/>
<polygon fill="#0080C9" points="123.7,31 125.3,31 125.3,35.8 129.3,31 130.9,31 130.9,38.2 129.2,38.2 129.2,33.5 125.2,38.2
123.7,38.2 "/>
<path fill="#0080C9" d="M138.1,31.7c0.6,0.5,0.8,1.3,0.8,2.3v4.2h-1.6v-0.9c-0.2,0.3-0.5,0.6-0.9,0.8c-0.4,0.2-0.8,0.2-1.4,0.2
c-0.5,0-1-0.1-1.4-0.2c-0.4-0.2-0.8-0.4-0.9-0.8c-0.3-0.3-0.3-0.7-0.3-1.1c0-0.7,0.2-1.2,0.7-1.6c0.5-0.4,1.2-0.6,2.2-0.6h1.8V34
c0-0.5-0.2-0.9-0.4-1.2c-0.3-0.2-0.8-0.4-1.3-0.4c-0.4,0-0.8,0.1-1.2,0.2c-0.4,0.2-0.8,0.3-1,0.5l-0.7-1.3c0.4-0.2,0.8-0.5,1.3-0.7
c0.5-0.2,1.1-0.2,1.7-0.2C136.7,30.9,137.5,31.2,138.1,31.7 M136.5,36.8c0.3-0.2,0.6-0.5,0.7-0.8v-0.8h-1.8c-1,0-1.4,0.3-1.4,1
c0,0.3,0.1,0.6,0.3,0.8c0.2,0.2,0.6,0.2,1,0.2C135.8,37.1,136.2,37,136.5,36.8"/>
<polygon fill="#0080C9" points="146.3,32.4 142.5,32.4 142.5,38.2 140.8,38.2 140.8,31 146.3,31 "/>
<polygon fill="#0080C9" points="147.3,31 149,31 149,33.9 152.7,33.9 152.7,31 154.3,31 154.3,38.2 152.7,38.2 152.7,35.3 149,35.3
149,38.2 147.3,38.2 "/>
<path fill="#0080C9" d="M157.7,37.8c-0.6-0.3-1.1-0.8-1.3-1.3c-0.3-0.6-0.5-1.2-0.5-1.9c0-0.7,0.2-1.3,0.5-1.9
c0.3-0.6,0.8-1,1.3-1.3c0.6-0.3,1.2-0.5,2-0.5c0.8,0,1.4,0.2,2,0.5c0.6,0.3,1.1,0.8,1.3,1.3c0.3,0.6,0.5,1.2,0.5,1.9
c0,0.8-0.2,1.3-0.5,1.9c-0.3,0.6-0.8,1-1.3,1.3c-0.6,0.3-1.2,0.5-2,0.5C158.9,38.3,158.2,38.2,157.7,37.8 M161.2,36.2
c0.4-0.4,0.6-1,0.6-1.7c0-0.7-0.2-1.2-0.6-1.7c-0.4-0.4-0.9-0.6-1.5-0.6s-1.2,0.2-1.5,0.6c-0.4,0.4-0.6,1-0.6,1.7
c0,0.7,0.2,1.2,0.6,1.7s0.9,0.6,1.5,0.6C160.2,36.8,160.8,36.7,161.2,36.2"/>
<path fill="#0080C9" d="M166.3,37.8c-0.6-0.3-1.1-0.8-1.4-1.3c-0.3-0.6-0.5-1.2-0.5-1.9c0-0.7,0.2-1.3,0.5-1.9
c0.3-0.6,0.8-1,1.4-1.3c0.6-0.3,1.2-0.5,2-0.5c0.8,0,1.3,0.2,1.8,0.4c0.5,0.2,0.9,0.7,1.2,1.3l-1.3,0.8c-0.2-0.3-0.5-0.6-0.7-0.8
c-0.3-0.2-0.7-0.2-1-0.2c-0.7,0-1.2,0.2-1.6,0.6c-0.4,0.4-0.6,0.9-0.6,1.7c0,0.7,0.2,1.2,0.6,1.7c0.4,0.4,0.9,0.6,1.6,0.6
c0.3,0,0.7-0.1,1-0.2c0.3-0.2,0.6-0.4,0.7-0.8l1.3,0.8c-0.2,0.5-0.7,0.9-1.2,1.2c-0.5,0.3-1.2,0.4-1.8,0.4
C167.6,38.3,166.9,38.2,166.3,37.8"/>
<polygon fill="#0080C9" points="178.8,32.4 176.2,32.4 176.2,38.2 174.6,38.2 174.6,32.4 172.1,32.4 172.1,31 178.8,31 "/>
<polygon fill="#0080C9" points="179.8,31 181.5,31 181.5,35.8 185.5,31 187.1,31 187.1,38.2 185.3,38.2 185.3,33.5 181.4,38.2
179.8,38.2 "/>
<polygon fill="#0080C9" points="192,35.3 190.7,35.3 190.7,38.2 189,38.2 189,31 190.7,31 190.7,33.9 192.1,33.9 194.2,31 196,31
193.3,34.5 196.2,38.2 194.2,38.2 "/>
<polygon fill="#0080C9" points="197.2,31 198.8,31 198.8,35.8 202.8,31 204.4,31 204.4,38.2 202.7,38.2 202.7,33.5 198.8,38.2
197.2,38.2 "/>
</svg>
